<?xml version="1.0" encoding="UTF-8" standalone="no"?>
<svg width="839px" height="400px" viewBox="0 0 839 400" version="1.1" xmlns="http://www.w3.org/2000/svg" xmlns:xlink="http://www.w3.org/1999/xlink">
    <!-- Generator: Sketch 3.6.1 (26313) - http://www.bohemiancoding.com/sketch -->
    <title>NGV_HORIZONTAL</title>
    <desc>Created with Sketch.</desc>
    <defs></defs>
    <g id="Page-1" stroke="none" stroke-width="1" fill="none" fill-rule="evenodd">
        <path d="M727.18,320.132 L670.962,320.132 L633.935,80.153 L671.992,80.153 L700.783,275.907 L729.581,80.153 L764.206,80.153 L727.18,320.132 L727.18,320.132 Z M475.665,161.059 L440.01,161.059 L440.01,135.348 C440.01,118.206 432.471,111.694 420.47,111.694 C408.477,111.694 400.93,118.206 400.93,135.348 L400.93,264.937 C400.93,282.079 408.477,288.246 420.47,288.246 C432.471,288.246 440.01,282.079 440.01,264.937 L440.01,220.713 L422.872,220.713 L422.872,186.429 L475.665,186.429 L475.665,262.539 C475.665,300.932 456.474,322.875 419.447,322.875 C382.421,322.875 363.222,300.932 363.222,262.539 L363.222,137.75 C363.222,99.352 382.421,77.41 419.447,77.41 C456.474,77.41 475.665,99.352 475.665,137.75 L475.665,161.059 L475.665,161.059 Z M199.737,320.132 L160.99,320.132 L114.032,146.319 L114.032,320.132 L80.089,320.132 L80.089,80.153 L127.397,80.153 L166.135,223.8 L166.135,80.153 L199.737,80.153 L199.737,320.132 L199.737,320.132 Z M0,400 L838.886,400 L838.886,0.526 L0,0.526 L0,400 Z" id="NGV_HORIZONTAL" fill="#1A1918"></path>
    </g>
</svg>