<svg xmlns="http://www.w3.org/2000/svg" xmlns:xlink="http://www.w3.org/1999/xlink" viewBox="0 0 91.93 95.55"><defs><style>.cls-1,.cls-6{fill:none;}.cls-2{isolation:isolate;}.cls-3{clip-path:url(#clip-path);}.cls-4{fill:#9aca3c;}.cls-5{fill:#231f20;opacity:0.1;mix-blend-mode:multiply;}.cls-6{stroke:#fff;stroke-linecap:round;stroke-linejoin:round;stroke-width:4.25px;}.cls-7{fill:#fff;}</style><clipPath id="clip-path"><circle class="cls-1" cx="43.33" cy="43.33" r="43.33"/></clipPath></defs><title>account-forgot-password</title><g class="cls-2"><g id="Layer_2" data-name="Layer 2"><g id="REF"><g class="cls-3"><circle class="cls-4" cx="43.33" cy="43.33" r="43.33"/><polygon class="cls-5" points="91.93 58.18 52.81 19.06 42.1 18.54 34.84 21.59 32.38 26.8 47.63 42.06 41.23 44.22 31.3 55.93 26.28 64.4 57.42 95.55 83.06 77.49 83.21 77.64 83.38 77.26 84.73 76.31 88.62 66.12 88.45 65.95 91.93 58.18"/><path class="cls-6" d="M56.28,30.25A11.75,11.75,0,0,0,44.57,18.54H42.1A11.75,11.75,0,0,0,30.39,30.25v18"/><path class="cls-7" d="M51,69.15H35.72A11.37,11.37,0,0,1,24.38,57.81V42.16a5.68,5.68,0,0,1,5.67-5.67H56.62a5.68,5.68,0,0,1,5.67,5.67V57.81A11.38,11.38,0,0,1,51,69.15ZM48.57,51.08a5.13,5.13,0,1,0-8.06,4.2l.58,2.86a2.36,2.36,0,1,0,4.71,0l.58-2.86A5.13,5.13,0,0,0,48.57,51.08Z"/></g></g></g></g></svg>