<svg xmlns="http://www.w3.org/2000/svg" xmlns:xlink="http://www.w3.org/1999/xlink" viewBox="0 0 90.08 91.25"><defs><style>.cls-1{fill:none;}.cls-2{isolation:isolate;}.cls-3{clip-path:url(#clip-path);}.cls-4,.cls-7{fill:#00c0f3;}.cls-5{fill:#231f20;opacity:0.15;mix-blend-mode:multiply;}.cls-6{fill:#fff;}.cls-7{stroke:#fff;stroke-miterlimit:10;stroke-width:2px;}</style><clipPath id="clip-path"><circle class="cls-1" cx="43.33" cy="43.33" r="43.33"/></clipPath></defs><title>hardware-request</title><g class="cls-2"><g id="Layer_2" data-name="Layer 2"><g id="REF"><g class="cls-3"><circle class="cls-4" cx="43.33" cy="43.33" r="43.33"/><polygon class="cls-5" points="23.79 69.38 46.26 91.25 51.57 90.82 75.13 87.42 89.36 85.24 90.08 69.48 88.72 37.33 69.38 19.25 69.38 52.18 66.71 56.62 53.57 55.89 42.7 56.62 42.65 66.61 23.33 66.61 23.79 69.38"/><rect class="cls-6" x="13.99" y="18.45" width="58.46" height="41.06" rx="5.67"/><rect class="cls-4" x="19.06" y="22.72" width="48.31" height="31.78"/><rect class="cls-7" x="39.59" y="58.32" width="7.25" height="7.49"/><rect class="cls-7" x="23.89" y="65.89" width="38.65" height="2.9" rx="1.14"/><circle class="cls-4" cx="63.91" cy="56.93" r="1.36"/><rect class="cls-6" x="40.55" y="28.98" width="5.49" height="19.35" rx="2.13"/><rect class="cls-6" x="33.62" y="35.91" width="19.35" height="5.49" rx="2.13"/></g></g></g></g></svg>