<svg xmlns="http://www.w3.org/2000/svg" xmlns:xlink="http://www.w3.org/1999/xlink" viewBox="0 0 94.42 102.58"><defs><style>.cls-1{fill:none;}.cls-2{isolation:isolate;}.cls-3{clip-path:url(#clip-path);}.cls-4,.cls-8{fill:#9aca3c;}.cls-5,.cls-6{fill:#231f20;mix-blend-mode:multiply;}.cls-5{opacity:0.15;}.cls-6{opacity:0.1;}.cls-7{fill:#fff;}.cls-8{stroke:#fff;stroke-miterlimit:10;stroke-width:3.5px;}</style><clipPath id="clip-path"><circle class="cls-1" cx="43.33" cy="43.33" r="43.33"/></clipPath></defs><title>onboard</title><g class="cls-2"><g id="Layer_2" data-name="Layer 2"><g id="REF"><g class="cls-3"><circle class="cls-4" cx="43.33" cy="43.33" r="43.33"/><polygon class="cls-5" points="45.96 8.5 52.96 15.49 45.04 15.49 45.04 9.65 45.96 8.5"/><polygon class="cls-6" points="23.58 70.89 55.27 102.58 94.42 67.45 93.84 49.34 62.37 16.8 27.82 60.69 23.58 70.89"/><path class="cls-7" d="M40.48,8.33h5a.71.71,0,0,1,.71.71v7.3a2.28,2.28,0,0,1-2.28,2.28H42.06a2.28,2.28,0,0,1-2.28-2.28V9a.71.71,0,0,1,.71-.71Z"/><rect class="cls-8" x="14.92" y="24.31" width="56.86" height="39.94" rx="5.67" transform="translate(-0.93 87.63) rotate(-90)"/><circle class="cls-4" cx="43.04" cy="11.57" r="1.39"/><path class="cls-7" d="M45.06,62.11H58.35a6.52,6.52,0,0,0-3.49-6.93c-4.25-2.26-6.82-3.06-7-5.7a30.42,30.42,0,0,1,.37-4H38.46a30.42,30.42,0,0,1,.37,4c-.17,2.64-2.74,3.44-7,5.7a6.52,6.52,0,0,0-3.48,6.93h16.7Z"/><path class="cls-7" d="M34.26,42.11h0c-.59.12-1.15-.39-1.25-1.13l-.41-3.17a1.38,1.38,0,0,1,.9-1.57h0a1.14,1.14,0,0,1,1.24,1.13l.41,3.17A1.36,1.36,0,0,1,34.26,42.11Z"/><path class="cls-7" d="M43.56,26.91c4.36,0,9.4,5.24,8.86,12-.5,6.33-3.56,11.24-9,11.24h-.7c-5.49,0-8.54-4.91-9-11.24-.54-6.73,4.51-12,8.87-12Z"/><path class="cls-7" d="M51.8,42.11h0c.59.12,1.15-.39,1.25-1.13l.41-3.17a1.38,1.38,0,0,0-.9-1.57h0c-.59-.12-1.15.39-1.25,1.13l-.41,3.17A1.37,1.37,0,0,0,51.8,42.11Z"/></g></g></g></g></svg>