<svg xmlns="http://www.w3.org/2000/svg" xmlns:xlink="http://www.w3.org/1999/xlink" viewBox="0 0 90.42 96.15"><defs><style>.cls-1,.cls-7{fill:none;}.cls-2{isolation:isolate;}.cls-3{clip-path:url(#clip-path);}.cls-4,.cls-6{fill:#f7943e;}.cls-5{fill:#231f20;opacity:0.09;mix-blend-mode:multiply;}.cls-6,.cls-7{stroke:#fff;stroke-miterlimit:10;stroke-width:3.5px;}.cls-8{fill:#fff;}</style><clipPath id="clip-path"><circle class="cls-1" cx="43.33" cy="43.33" r="43.33"/></clipPath></defs><title>software-incident</title><g class="cls-2"><g id="Layer_2" data-name="Layer 2"><g id="REF"><g class="cls-3"><circle class="cls-4" cx="43.33" cy="43.33" r="43.33"/><polygon class="cls-5" points="23.75 70.94 48.89 96.15 78.76 88.12 89 62.99 90.42 52.75 59.84 21.34 44.1 27.16 26.52 57.41 23.75 70.94"/><path class="cls-6" d="M59.88,71.19H26.76a3.13,3.13,0,0,1-3.13-3.12V18.63a3.14,3.14,0,0,1,3.13-3.13H50.51C54.31,16,62.21,24.56,63,28V68.07A3.13,3.13,0,0,1,59.88,71.19Z"/><path class="cls-7" d="M63.27,27.44l-8.17-.78A3.14,3.14,0,0,1,52,23.53l-.78-8.33"/><rect class="cls-8" x="40.49" y="31.12" width="5.76" height="20.31" rx="2.13"/><circle class="cls-8" cx="43.38" cy="56.71" r="2.92"/></g></g></g></g></svg>